<?xml version="1.0" encoding="iso-8859-1"?>
<!-- Generator: Adobe Illustrator 18.1.1, SVG Export Plug-In . SVG Version: 6.00 Build 0)  -->
<svg version="1.1" id="Capa_1" xmlns="http://www.w3.org/2000/svg" xmlns:xlink="http://www.w3.org/1999/xlink" x="0px" y="0px"
	 viewBox="0 0 482.979 482.979" style="enable-background:new 0 0 482.979 482.979;" xml:space="preserve">
<g>
	<g>
		<path fill="#ffffff" d="M56.208,318.698c34.85,34.283,95.2,74.8,185.3,74.8s150.45-40.8,185.3-74.8c37.683-36.833,53.833-73.95,54.683-75.367
			c1.983-4.25,1.983-9.35,0-13.6c-0.567-1.417-15.867-36.267-53.267-70.833c-34.283-31.733-94.917-69.417-188.417-69.417
			s-153,37.967-186.717,69.7c-36.833,34.567-51.283,69.417-51.85,71.117c-1.7,4.25-1.7,9.067,0.283,13.033
			C2.092,244.748,18.525,281.865,56.208,318.698z M238.958,124.615c45.617,0,82.733,37.117,82.733,82.733
			s-37.117,82.733-82.733,82.733s-82.733-37.117-82.733-82.733C156.225,161.731,193.342,124.615,238.958,124.615z M142.908,141.048
			c-13.033,18.7-20.683,41.65-20.683,66.3c0,64.317,52.417,116.733,116.733,116.733s116.733-52.417,116.733-116.733
			c0-24.933-7.933-47.883-21.25-66.867c69.133,26.633,102,77.633,111.917,96.333c-6.233,11.333-20.683,35.417-44.767,58.933
			c-43.917,42.783-97.75,64.317-160.367,64.317s-116.45-22.1-160.367-64.6c-24.367-23.8-38.817-47.883-45.05-59.217
			C45.158,218.115,75.758,167.965,142.908,141.048z"/>
	</g>
</g>
<g>
</g>
<g>
</g>
<g>
</g>
<g>
</g>
<g>
</g>
<g>
</g>
<g>
</g>
<g>
</g>
<g>
</g>
<g>
</g>
<g>
</g>
<g>
</g>
<g>
</g>
<g>
</g>
<g>
</g>
</svg>
